<svg width="50" height="50" viewBox="0 0 50 50" fill="none" xmlns="http://www.w3.org/2000/svg">
<path d="M27.0835 25C27.0835 23.8494 28.0162 22.9167 29.1668 22.9167H39.5835C40.7341 22.9167 41.6668 23.8494 41.6668 25V39.5834C41.6668 40.734 40.7341 41.6667 39.5835 41.6667H29.1668C28.0162 41.6667 27.0835 40.734 27.0835 39.5834V25Z" stroke="#292929" stroke-width="3" stroke-linecap="round"/>
<path d="M8.3335 10.4167C8.3335 9.26611 9.26624 8.33337 10.4168 8.33337H18.7502C19.9008 8.33337 20.8335 9.26611 20.8335 10.4167V25C20.8335 26.1506 19.9008 27.0834 18.7502 27.0834H10.4168C9.26624 27.0834 8.3335 26.1506 8.3335 25V10.4167Z" stroke="#292929" stroke-width="3" stroke-linecap="round"/>
<path d="M8.3335 35.4167C8.3335 34.2661 9.26624 33.3334 10.4168 33.3334H18.7502C19.9008 33.3334 20.8335 34.2661 20.8335 35.4167V39.5834C20.8335 40.734 19.9008 41.6667 18.7502 41.6667H10.4168C9.26624 41.6667 8.3335 40.734 8.3335 39.5834V35.4167Z" stroke="#292929" stroke-width="3" stroke-linecap="round"/>
<path d="M27.0835 10.4167C27.0835 9.26611 28.0162 8.33337 29.1668 8.33337H39.5835C40.7341 8.33337 41.6668 9.26611 41.6668 10.4167V14.5834C41.6668 15.734 40.7341 16.6667 39.5835 16.6667H29.1668C28.0162 16.6667 27.0835 15.734 27.0835 14.5834V10.4167Z" stroke="#292929" stroke-width="3" stroke-linecap="round"/>
</svg>
