<svg width="50" height="50" viewBox="0 0 50 50" fill="none" xmlns="http://www.w3.org/2000/svg">
<path d="M18.75 20.8333C18.75 19.5972 19.1166 18.3888 19.8033 17.361C20.4901 16.3332 21.4662 15.5321 22.6082 15.0591C23.7503 14.586 25.0069 14.4623 26.2193 14.7034C27.4317 14.9446 28.5453 15.5398 29.4194 16.4139C30.2935 17.288 30.8888 18.4016 31.1299 19.614C31.3711 20.8264 31.2473 22.0831 30.7742 23.2251C30.3012 24.3671 29.5001 25.3433 28.4723 26.03C27.4445 26.7168 26.2361 27.0833 25 27.0833V29.1667M43.75 25C43.75 35.3553 35.3553 43.75 25 43.75C14.6447 43.75 6.25 35.3553 6.25 25C6.25 14.6447 14.6447 6.25 25 6.25C35.3553 6.25 43.75 14.6447 43.75 25Z" stroke="#292929" stroke-width="3" stroke-linecap="round" stroke-linejoin="round"/>
<circle cx="24.9998" cy="35.4167" r="2.08333" fill="#292929"/>
</svg>
